<svg width="18" height="18" viewBox="0 0 18 18" fill="none" xmlns="http://www.w3.org/2000/svg">
<g clip-path="url(#clip0_1_159)">
<path d="M12.5948 10.2C12.7382 9.81622 12.811 9.40969 12.8098 9C12.8098 8.09031 12.4485 7.21787 11.8052 6.57462C11.162 5.93137 10.2895 5.57 9.37982 5.57C8.97518 5.57058 8.57388 5.64339 8.19482 5.785L8.99982 6.615C9.12224 6.59584 9.24592 6.58582 9.36982 6.585C10.013 6.58366 10.6307 6.83687 11.0878 7.28935C11.545 7.74182 11.8045 8.3568 11.8098 9C11.809 9.12391 11.799 9.24758 11.7798 9.37L12.5948 10.2Z" fill="#1C1102"/>
<path d="M17.1452 8.765C15.4602 5.65 12.5052 3.765 9.23523 3.765C8.3449 3.76692 7.46053 3.91038 6.61523 4.19L7.42023 5C8.01318 4.84687 8.62284 4.76793 9.23523 4.765C12.0502 4.765 14.6102 6.335 16.1352 8.98C15.5753 9.96095 14.8338 10.8263 13.9502 11.53L14.6602 12.24C15.6836 11.415 16.5332 10.3953 17.1602 9.24L17.2902 9L17.1452 8.765Z" fill="#1C1102"/>
<path d="M2.43494 2.89L4.66494 5.12C3.25511 6.02721 2.10302 7.28262 1.31994 8.765L1.18994 9L1.31994 9.24C3.00494 12.355 5.95994 14.24 9.22994 14.24C10.5063 14.2403 11.7662 13.9514 12.9149 13.395L15.4149 15.895L16.2899 15.145L3.28994 2.145L2.43494 2.89ZM7.30994 7.765L10.6349 11.09C10.2594 11.3228 9.8268 11.4474 9.38494 11.45C9.06391 11.45 8.74604 11.3865 8.44963 11.2632C8.15322 11.1399 7.88412 10.9592 7.65781 10.7315C7.4315 10.5038 7.25246 10.2336 7.13097 9.93644C7.00949 9.63928 6.94796 9.32103 6.94994 9C6.95532 8.56324 7.07979 8.13624 7.30994 7.765ZM6.58494 7.04C6.11716 7.6997 5.8979 8.50365 5.966 9.30949C6.03409 10.1153 6.38515 10.8711 6.957 11.4429C7.52884 12.0148 8.2846 12.3658 9.09045 12.4339C9.89629 12.502 10.7002 12.2828 11.3599 11.815L12.1599 12.615C11.2339 13.011 10.2371 13.2151 9.22994 13.215C6.41494 13.215 3.85494 11.645 2.32994 9C3.06198 7.70425 4.11595 6.61928 5.38994 5.85L6.58494 7.04Z" fill="#1C1102"/>
</g>
<defs>
<clipPath id="clip0_1_159">
<rect width="18" height="18" fill="white"/>
</clipPath>
</defs>
</svg>
