<svg width="18" height="18" viewBox="0 0 18 18" fill="none" xmlns="http://www.w3.org/2000/svg">
<g clip-path="url(#clip0_1_164)">
<path d="M16.8099 8.765C15.1249 5.65 12.1699 3.765 8.89986 3.765C5.62986 3.765 2.66986 5.65 0.999863 8.765L0.859863 9L0.989863 9.24C2.67486 12.355 5.62986 14.24 8.89986 14.24C12.1699 14.24 15.1299 12.38 16.8099 9.24L16.9399 9L16.8099 8.765ZM8.89986 13.215C6.08486 13.215 3.49986 11.645 1.99986 9C3.49986 6.355 6.08486 4.785 8.89986 4.785C11.7149 4.785 14.2699 6.36 15.7949 9C14.2699 11.645 11.7099 13.215 8.89986 13.215Z" fill="#1C1102"/>
<path d="M9.04511 5.585C8.36717 5.58995 7.70589 5.79569 7.14482 6.17624C6.58374 6.55679 6.14802 7.09508 5.89269 7.72312C5.63736 8.35116 5.57387 9.04078 5.71025 9.70488C5.84663 10.369 6.17675 10.9778 6.65892 11.4544C7.1411 11.931 7.75369 12.254 8.41933 12.3826C9.08498 12.5112 9.77381 12.4397 10.3988 12.1771C11.0239 11.9145 11.557 11.4725 11.931 10.907C12.305 10.3416 12.5031 9.67795 12.5001 9C12.4981 8.54872 12.4071 8.10226 12.2323 7.68621C12.0575 7.27016 11.8023 6.8927 11.4814 6.57545C11.1604 6.25821 10.78 6.00742 10.3619 5.83746C9.94387 5.6675 9.49638 5.58171 9.04511 5.585ZM9.04511 11.445C8.56623 11.4401 8.0995 11.2937 7.70351 11.0244C7.30753 10.7551 6.99996 10.3747 6.81943 9.93117C6.6389 9.4876 6.59346 9.00058 6.68881 8.53127C6.78417 8.06196 7.01607 7.6313 7.35539 7.29336C7.69472 6.95542 8.12633 6.72527 8.59602 6.63183C9.06572 6.53839 9.55255 6.58582 9.99537 6.76816C10.4382 6.9505 10.8173 7.25962 11.085 7.6567C11.3527 8.05378 11.4971 8.52111 11.5001 9C11.5014 9.3223 11.4388 9.64166 11.3157 9.93955C11.1927 10.2375 11.0118 10.508 10.7834 10.7354C10.555 10.9628 10.2838 11.1427 9.9854 11.2645C9.68701 11.3863 9.3674 11.4476 9.04511 11.445Z" fill="#1C1102"/>
</g>
<defs>
<clipPath id="clip0_1_164">
<rect width="18" height="18" fill="white"/>
</clipPath>
</defs>
</svg>
