<svg width="25" height="24" viewBox="0 0 25 24" fill="none" xmlns="http://www.w3.org/2000/svg">
<rect width="24" height="24" transform="translate(0.56543)" fill="white"/>
<g clip-path="url(#clip0_258_479)">
<path d="M19.0654 20H6.06543C5.23543 20 4.56543 19.33 4.56543 18.5V6.5C4.56543 5.67 5.23543 5 6.06543 5H19.0654C19.8954 5 20.5654 5.67 20.5654 6.5V18.5C20.5654 19.33 19.8954 20 19.0654 20ZM6.06543 6C5.78543 6 5.56543 6.22 5.56543 6.5V18.5C5.56543 18.78 5.78543 19 6.06543 19H19.0654C19.3454 19 19.5654 18.78 19.5654 18.5V6.5C19.5654 6.22 19.3454 6 19.0654 6H6.06543Z" fill="#02151C"/>
<path d="M9.06543 8C8.78543 8 8.56543 7.78 8.56543 7.5V4.5C8.56543 4.22 8.78543 4 9.06543 4C9.34543 4 9.56543 4.22 9.56543 4.5V7.5C9.56543 7.78 9.34543 8 9.06543 8ZM16.0654 8C15.7854 8 15.5654 7.78 15.5654 7.5V4.5C15.5654 4.22 15.7854 4 16.0654 4C16.3454 4 16.5654 4.22 16.5654 4.5V7.5C16.5654 7.78 16.3454 8 16.0654 8ZM20.0654 10H5.06543C4.78543 10 4.56543 9.78 4.56543 9.5C4.56543 9.22 4.78543 9 5.06543 9H20.0654C20.3454 9 20.5654 9.22 20.5654 9.5C20.5654 9.78 20.3454 10 20.0654 10Z" fill="#02151C"/>
</g>
<defs>
<clipPath id="clip0_258_479">
<rect width="16" height="16" fill="white" transform="translate(4.56543 4)"/>
</clipPath>
</defs>
</svg>
