<svg width="19" height="18" viewBox="0 0 19 18" fill="none" xmlns="http://www.w3.org/2000/svg">
<path d="M9.39111 13.462C9.56578 13.462 9.71211 13.403 9.83011 13.285C9.94745 13.167 10.0061 13.0207 10.0061 12.846C10.0061 12.672 9.94711 12.526 9.82911 12.408C9.71111 12.29 9.56511 12.2307 9.39111 12.23C9.21711 12.2293 9.07111 12.2883 8.95311 12.407C8.83511 12.5257 8.77611 12.6717 8.77611 12.845C8.77611 13.0183 8.83511 13.1647 8.95311 13.284C9.07111 13.4033 9.21711 13.4633 9.39111 13.462ZM9.39111 10.153C9.53378 10.153 9.65278 10.105 9.74811 10.009C9.84345 9.913 9.89111 9.79433 9.89111 9.653V4.653C9.89111 4.511 9.84311 4.39233 9.74711 4.297C9.65111 4.20167 9.53211 4.15367 9.39011 4.153C9.24811 4.15233 9.12945 4.20033 9.03411 4.297C8.93878 4.39367 8.89111 4.51233 8.89111 4.653V9.653C8.89111 9.79433 8.93911 9.913 9.03511 10.009C9.13111 10.105 9.25011 10.153 9.39211 10.153M9.39411 18C8.14945 18 6.97945 17.764 5.88411 17.292C4.78878 16.8193 3.83578 16.178 3.02511 15.368C2.21445 14.558 1.57278 13.606 1.10011 12.512C0.627447 11.418 0.391113 10.2483 0.391113 9.003C0.391113 7.75767 0.627447 6.58767 1.10011 5.493C1.57211 4.39767 2.21245 3.44467 3.02111 2.634C3.82978 1.82333 4.78211 1.18167 5.87811 0.709C6.97411 0.236333 8.14411 0 9.38811 0C10.6321 0 11.8021 0.236333 12.8981 0.709C13.9934 1.181 14.9464 1.82167 15.7571 2.631C16.5678 3.44033 17.2094 4.39267 17.6821 5.488C18.1548 6.58333 18.3911 7.753 18.3911 8.997C18.3911 10.241 18.1551 11.411 17.6831 12.507C17.2111 13.603 16.5698 14.556 15.7591 15.366C14.9484 16.176 13.9964 16.8177 12.9031 17.291C11.8098 17.7643 10.6401 18.0007 9.39411 18ZM9.39111 17C11.6244 17 13.5161 16.225 15.0661 14.675C16.6161 13.125 17.3911 11.2333 17.3911 9C17.3911 6.76667 16.6161 4.875 15.0661 3.325C13.5161 1.775 11.6244 1 9.39111 1C7.15778 1 5.26611 1.775 3.71611 3.325C2.16611 4.875 1.39111 6.76667 1.39111 9C1.39111 11.2333 2.16611 13.125 3.71611 14.675C5.26611 16.225 7.15778 17 9.39111 17Z" fill="black"/>
</svg>
