<svg width="15" height="4" viewBox="0 0 15 4" fill="none" xmlns="http://www.w3.org/2000/svg">
<path d="M7.34766 0C6.95209 0 6.56542 0.117298 6.23652 0.337061C5.90762 0.556824 5.65127 0.869181 5.4999 1.23463C5.34852 1.60009 5.30892 2.00222 5.38609 2.39018C5.46326 2.77814 5.65374 3.13451 5.93344 3.41421C6.21315 3.69392 6.56951 3.8844 6.95748 3.96157C7.34544 4.03874 7.74757 3.99913 8.11302 3.84776C8.47848 3.69638 8.79083 3.44004 9.0106 3.11114C9.23036 2.78224 9.34766 2.39556 9.34766 2C9.34766 1.46957 9.13694 0.960859 8.76187 0.585786C8.3868 0.210714 7.87809 0 7.34766 0ZM7.34766 3C7.14988 3 6.95654 2.94135 6.79209 2.83147C6.62764 2.72159 6.49946 2.56541 6.42378 2.38268C6.34809 2.19996 6.32829 1.99889 6.36687 1.80491C6.40546 1.61093 6.5007 1.43275 6.64055 1.29289C6.7804 1.15304 6.95859 1.0578 7.15257 1.01921C7.34655 0.980629 7.54762 1.00043 7.73034 1.07612C7.91307 1.15181 8.06925 1.27998 8.17913 1.44443C8.28901 1.60888 8.34766 1.80222 8.34766 2C8.34766 2.26522 8.2423 2.51957 8.05476 2.70711C7.86723 2.89464 7.61287 3 7.34766 3ZM2.34766 0C1.95209 0 1.56541 0.117298 1.23652 0.337061C0.907618 0.556824 0.651273 0.869181 0.499898 1.23463C0.348523 1.60009 0.308916 2.00222 0.386087 2.39018C0.463257 2.77814 0.653739 3.13451 0.933444 3.41421C1.21315 3.69392 1.56951 3.8844 1.95748 3.96157C2.34544 4.03874 2.74757 3.99913 3.11302 3.84776C3.47848 3.69638 3.79083 3.44004 4.0106 3.11114C4.23036 2.78224 4.34766 2.39556 4.34766 2C4.34766 1.46957 4.13694 0.960859 3.76187 0.585786C3.3868 0.210714 2.87809 0 2.34766 0ZM2.34766 3C2.14988 3 1.95654 2.94135 1.79209 2.83147C1.62764 2.72159 1.49947 2.56541 1.42378 2.38268C1.34809 2.19996 1.32829 1.99889 1.36687 1.80491C1.40546 1.61093 1.5007 1.43275 1.64055 1.29289C1.7804 1.15304 1.95859 1.0578 2.15257 1.01921C2.34655 0.980629 2.54761 1.00043 2.73034 1.07612C2.91307 1.15181 3.06925 1.27998 3.17913 1.44443C3.28901 1.60888 3.34766 1.80222 3.34766 2C3.34766 2.26522 3.2423 2.51957 3.05476 2.70711C2.86723 2.89464 2.61287 3 2.34766 3ZM12.3477 0C11.9521 0 11.5654 0.117298 11.2365 0.337061C10.9076 0.556824 10.6513 0.869181 10.4999 1.23463C10.3485 1.60009 10.3089 2.00222 10.3861 2.39018C10.4633 2.77814 10.6537 3.13451 10.9334 3.41421C11.2131 3.69392 11.5695 3.8844 11.9575 3.96157C12.3454 4.03874 12.7476 3.99913 13.113 3.84776C13.4785 3.69638 13.7908 3.44004 14.0106 3.11114C14.2304 2.78224 14.3477 2.39556 14.3477 2C14.3477 1.46957 14.1369 0.960859 13.7619 0.585786C13.3868 0.210714 12.8781 0 12.3477 0ZM12.3477 3C12.1499 3 11.9565 2.94135 11.7921 2.83147C11.6276 2.72159 11.4995 2.56541 11.4238 2.38268C11.3481 2.19996 11.3283 1.99889 11.3669 1.80491C11.4055 1.61093 11.5007 1.43275 11.6406 1.29289C11.7804 1.15304 11.9586 1.0578 12.1526 1.01921C12.3465 0.980629 12.5476 1.00043 12.7303 1.07612C12.9131 1.15181 13.0692 1.27998 13.1791 1.44443C13.289 1.60888 13.3477 1.80222 13.3477 2C13.3477 2.26522 13.2423 2.51957 13.0548 2.70711C12.8672 2.89464 12.6129 3 12.3477 3Z" fill="currentColor
"/>
</svg>
