<svg width="24" height="24" viewBox="0 0 24 24" fill="none" xmlns="http://www.w3.org/2000/svg">
<path d="M19.4498 4.06H15.2698V3.56C15.2698 3.16217 15.1118 2.78064 14.8305 2.49934C14.5492 2.21803 14.1676 2.06 13.7698 2.06H10.2298C9.83198 2.06 9.45045 2.21803 9.16914 2.49934C8.88784 2.78064 8.7298 3.16217 8.7298 3.56V4.06H4.5498C4.4172 4.06 4.29002 4.11268 4.19625 4.20644C4.10248 4.30021 4.0498 4.42739 4.0498 4.56C4.0498 4.69261 4.10248 4.81978 4.19625 4.91355C4.29002 5.00732 4.4172 5.06 4.5498 5.06H5.2698L5.6898 19.51C5.70627 20.1614 5.97713 20.7805 6.4444 21.2347C6.91166 21.6889 7.53818 21.942 8.1898 21.94H15.8098C16.4614 21.942 17.0879 21.6889 17.5552 21.2347C18.0225 20.7805 18.2933 20.1614 18.3098 19.51L18.7298 5.06H19.4498C19.5824 5.06 19.7096 5.00732 19.8034 4.91355C19.8971 4.81978 19.9498 4.69261 19.9498 4.56C19.9498 4.42739 19.8971 4.30021 19.8034 4.20644C19.7096 4.11268 19.5824 4.06 19.4498 4.06ZM9.7298 3.56C9.7298 3.42739 9.78248 3.30021 9.87625 3.20644C9.97002 3.11268 10.0972 3.06 10.2298 3.06H13.7698C13.9024 3.06 14.0296 3.11268 14.1234 3.20644C14.2171 3.30021 14.2698 3.42739 14.2698 3.56V4.06H9.7298V3.56ZM17.3098 19.48C17.2994 19.8708 17.1368 20.2422 16.8566 20.5149C16.5764 20.7876 16.2008 20.9401 15.8098 20.94H8.1898C7.79881 20.9401 7.42322 20.7876 7.14304 20.5149C6.86286 20.2422 6.70023 19.8708 6.6898 19.48L6.2598 5.06H17.7398L17.3098 19.48Z" fill="currentColor"/>
<path d="M8.375 8C8.375 7.86739 8.42768 7.74021 8.52145 7.64645C8.61521 7.55268 8.74239 7.5 8.875 7.5C9.00761 7.5 9.13479 7.55268 9.22855 7.64645C9.32232 7.74021 9.375 7.86739 9.375 8L9.625 18C9.625 18.1326 9.57232 18.2598 9.47855 18.3536C9.38479 18.4473 9.25761 18.5 9.125 18.5C8.99239 18.5 8.86521 18.4473 8.77145 18.3536C8.67768 18.2598 8.625 18.1326 8.625 18L8.375 8ZM15.625 8.007C15.625 7.87439 15.5723 7.74721 15.4786 7.65345C15.3848 7.55968 15.2576 7.507 15.125 7.507C14.9924 7.507 14.8652 7.55968 14.7714 7.65345C14.6777 7.74721 14.625 7.87439 14.625 8.007L14.375 18.007C14.375 18.1396 14.4277 18.2668 14.5214 18.3606C14.6152 18.4543 14.7424 18.507 14.875 18.507C15.0076 18.507 15.1348 18.4543 15.2286 18.3606C15.3223 18.2668 15.375 18.1396 15.375 18.007L15.625 8.007Z" fill="currentColor"/>
</svg>
