<svg width="74" height="74" viewBox="0 0 74 74" fill="none" xmlns="http://www.w3.org/2000/svg">
<path d="M7.07568 55.6712L20.9605 10.5455L48.7301 7.07434L66.0862 45.2576L31.3741 66.0848L7.07568 55.6712Z" stroke="#02151C" stroke-width="2" stroke-linecap="round" stroke-linejoin="round"/>
<path d="M7.07461 61.7461C10.4295 61.7461 13.1492 59.0264 13.1492 55.6715C13.1492 52.3166 10.4295 49.5969 7.07461 49.5969C3.7197 49.5969 1 52.3166 1 55.6715C1 59.0264 3.7197 61.7461 7.07461 61.7461Z" fill="#02151C" stroke="#02151C" stroke-width="2" stroke-linecap="round" stroke-linejoin="round"/>
<path d="M20.9599 16.6202C24.3148 16.6202 27.0345 13.9005 27.0345 10.5456C27.0345 7.19064 24.3148 4.47095 20.9599 4.47095C17.6049 4.47095 14.8853 7.19064 14.8853 10.5456C14.8853 13.9005 17.6049 16.6202 20.9599 16.6202Z" fill="#02151C" stroke="#02151C" stroke-width="2" stroke-linecap="round" stroke-linejoin="round"/>
<path d="M48.7299 13.1492C52.0848 13.1492 54.8045 10.4295 54.8045 7.07461C54.8045 3.7197 52.0848 1 48.7299 1C45.375 1 42.6553 3.7197 42.6553 7.07461C42.6553 10.4295 45.375 13.1492 48.7299 13.1492Z" fill="#FC5723" stroke="#02151C" stroke-width="2" stroke-linecap="round" stroke-linejoin="round"/>
<path d="M66.0854 51.3326C69.4403 51.3326 72.16 48.6129 72.16 45.258C72.16 41.903 69.4403 39.1833 66.0854 39.1833C62.7304 39.1833 60.0107 41.903 60.0107 45.258C60.0107 48.6129 62.7304 51.3326 66.0854 51.3326Z" fill="#02151C" stroke="#02151C" stroke-width="2" stroke-linecap="round" stroke-linejoin="round"/>
<path d="M31.372 72.1602C34.7269 72.1602 37.4466 69.4405 37.4466 66.0856C37.4466 62.7307 34.7269 60.011 31.372 60.011C28.0171 60.011 25.2974 62.7307 25.2974 66.0856C25.2974 69.4405 28.0171 72.1602 31.372 72.1602Z" fill="#02151C" stroke="#02151C" stroke-width="2" stroke-linecap="round" stroke-linejoin="round"/>
<mask id="path-7-inside-1_17_278" fill="white">
<path d="M23.907 38.4267L24.2423 36.4267L32.8161 32.9039L32.4411 35.2051L26.6002 37.4039L26.6911 37.2846L26.64 37.5687L26.5775 37.4494L31.7082 39.6483L31.3218 41.9494L23.907 38.4267ZM40.7934 29.8983L34.748 43.8301H32.6627L38.7082 29.8983H40.7934ZM49.1301 38.4267L40.5448 41.9494L40.9312 39.6483L46.7551 37.4494L46.6698 37.5687L46.721 37.2846L46.7778 37.4039L41.6642 35.2051L42.0392 32.9039L49.4653 36.4267L49.1301 38.4267Z"/>
</mask>
<path d="M23.907 38.4267L24.2423 36.4267L32.8161 32.9039L32.4411 35.2051L26.6002 37.4039L26.6911 37.2846L26.64 37.5687L26.5775 37.4494L31.7082 39.6483L31.3218 41.9494L23.907 38.4267ZM40.7934 29.8983L34.748 43.8301H32.6627L38.7082 29.8983H40.7934ZM49.1301 38.4267L40.5448 41.9494L40.9312 39.6483L46.7551 37.4494L46.6698 37.5687L46.721 37.2846L46.7778 37.4039L41.6642 35.2051L42.0392 32.9039L49.4653 36.4267L49.1301 38.4267Z" fill="#02151C"/>
<path d="M23.907 38.4267L22.9208 38.2614L22.796 39.0059L23.4779 39.3299L23.907 38.4267ZM24.2423 36.4267L23.8622 35.5017L23.3479 35.713L23.256 36.2614L24.2423 36.4267ZM32.8161 32.9039L33.8031 33.0648L34.0909 31.2991L32.4361 31.979L32.8161 32.9039ZM32.4411 35.2051L32.7935 36.141L33.335 35.9371L33.4281 35.3659L32.4411 35.2051ZM26.6002 37.4039L25.8048 36.7979L23.6959 39.5658L26.9526 38.3398L26.6002 37.4039ZM26.6911 37.2846L27.6753 37.4618L25.8957 36.6786L26.6911 37.2846ZM26.64 37.5687L25.7542 38.0327L27.1075 40.6163L27.6242 37.7459L26.64 37.5687ZM26.5775 37.4494L26.9714 36.5303L24.387 35.4226L25.6917 37.9134L26.5775 37.4494ZM31.7082 39.6483L32.6944 39.8138L32.8245 39.0387L32.1021 38.7291L31.7082 39.6483ZM31.3218 41.9494L30.8927 42.8526L32.0888 43.4209L32.308 42.115L31.3218 41.9494ZM23.907 38.4267L24.8933 38.592L25.2285 36.592L24.2423 36.4267L23.256 36.2614L22.9208 38.2614L23.907 38.4267ZM24.2423 36.4267L24.6223 37.3516L33.1962 33.8289L32.8161 32.9039L32.4361 31.979L23.8622 35.5017L24.2423 36.4267ZM32.8161 32.9039L31.8292 32.7431L31.4542 35.0442L32.4411 35.2051L33.4281 35.3659L33.8031 33.0648L32.8161 32.9039ZM32.4411 35.2051L32.0888 34.2692L26.2479 36.4681L26.6002 37.4039L26.9526 38.3398L32.7935 36.141L32.4411 35.2051ZM26.6002 37.4039L27.3957 38.01L27.4866 37.8907L26.6911 37.2846L25.8957 36.6786L25.8048 36.7979L26.6002 37.4039ZM26.6911 37.2846L25.707 37.1075L25.6558 37.3916L26.64 37.5687L27.6242 37.7459L27.6753 37.4618L26.6911 37.2846ZM26.64 37.5687L27.5258 37.1047L27.4633 36.9854L26.5775 37.4494L25.6917 37.9134L25.7542 38.0327L26.64 37.5687ZM26.5775 37.4494L26.1836 38.3685L31.3143 40.5674L31.7082 39.6483L32.1021 38.7291L26.9714 36.5303L26.5775 37.4494ZM31.7082 39.6483L30.722 39.4827L30.3356 41.7838L31.3218 41.9494L32.308 42.115L32.6944 39.8138L31.7082 39.6483ZM31.3218 41.9494L31.7509 41.0462L24.3362 37.5234L23.907 38.4267L23.4779 39.3299L30.8927 42.8526L31.3218 41.9494ZM40.7934 29.8983L41.7108 30.2963L42.3174 28.8983H40.7934V29.8983ZM34.748 43.8301V44.8301H35.4041L35.6653 44.2281L34.748 43.8301ZM32.6627 43.8301L31.7454 43.432L31.1387 44.8301H32.6627V43.8301ZM38.7082 29.8983V28.8983H38.052L37.7908 29.5002L38.7082 29.8983ZM40.7934 29.8983L39.8761 29.5002L33.8306 43.432L34.748 43.8301L35.6653 44.2281L41.7108 30.2963L40.7934 29.8983ZM34.748 43.8301V42.8301H32.6627V43.8301V44.8301H34.748V43.8301ZM32.6627 43.8301L33.5801 44.2281L39.6255 30.2963L38.7082 29.8983L37.7908 29.5002L31.7454 43.432L32.6627 43.8301ZM38.7082 29.8983V30.8983H40.7934V29.8983V28.8983H38.7082V29.8983ZM49.1301 38.4267L49.5097 39.3518L50.0243 39.1406L50.1163 38.592L49.1301 38.4267ZM40.5448 41.9494L39.5586 41.7838L39.2609 43.5571L40.9244 42.8745L40.5448 41.9494ZM40.9312 39.6483L40.578 38.7127L40.0402 38.9158L39.945 39.4827L40.9312 39.6483ZM46.7551 37.4494L47.5688 38.0306L49.4832 35.3504L46.4018 36.5139L46.7551 37.4494ZM46.6698 37.5687L45.6856 37.3916L47.4836 38.15L46.6698 37.5687ZM46.721 37.2846L47.6238 36.8547L46.2874 34.0483L45.7368 37.1075L46.721 37.2846ZM46.7778 37.4039L46.3828 38.3226L48.8224 39.3716L47.6806 36.974L46.7778 37.4039ZM41.6642 35.2051L40.6772 35.0442L40.5515 35.8152L41.2691 36.1237L41.6642 35.2051ZM42.0392 32.9039L42.4677 32.0004L41.2661 31.4304L41.0522 32.7431L42.0392 32.9039ZM49.4653 36.4267L50.4515 36.592L50.5764 35.8469L49.8939 35.5232L49.4653 36.4267ZM49.1301 38.4267L48.7505 37.5015L40.1652 41.0243L40.5448 41.9494L40.9244 42.8745L49.5097 39.3518L49.1301 38.4267ZM40.5448 41.9494L41.531 42.115L41.9174 39.8138L40.9312 39.6483L39.945 39.4827L39.5586 41.7838L40.5448 41.9494ZM40.9312 39.6483L41.2844 40.5838L47.1083 38.3849L46.7551 37.4494L46.4018 36.5139L40.578 38.7127L40.9312 39.6483ZM46.7551 37.4494L45.9413 36.8682L45.8561 36.9875L46.6698 37.5687L47.4836 38.15L47.5688 38.0306L46.7551 37.4494ZM46.6698 37.5687L47.654 37.7459L47.7052 37.4618L46.721 37.2846L45.7368 37.1075L45.6856 37.3916L46.6698 37.5687ZM46.721 37.2846L45.8181 37.7146L45.8749 37.8339L46.7778 37.4039L47.6806 36.974L47.6238 36.8547L46.721 37.2846ZM46.7778 37.4039L47.1728 36.4853L42.0592 34.2864L41.6642 35.2051L41.2691 36.1237L46.3828 38.3226L46.7778 37.4039ZM41.6642 35.2051L42.6511 35.3659L43.0261 33.0648L42.0392 32.9039L41.0522 32.7431L40.6772 35.0442L41.6642 35.2051ZM42.0392 32.9039L41.6106 33.8074L49.0367 37.3302L49.4653 36.4267L49.8939 35.5232L42.4677 32.0004L42.0392 32.9039ZM49.4653 36.4267L48.479 36.2614L48.1438 38.2614L49.1301 38.4267L50.1163 38.592L50.4515 36.592L49.4653 36.4267Z" fill="#02151C" mask="url(#path-7-inside-1_17_278)"/>
</svg>
